<svg id="Layer_2" data-name="Layer 2" xmlns="http://www.w3.org/2000/svg" width="188.069" height="184.475" viewBox="0 0 188.069 184.475">
  <path id="Path_1" data-name="Path 1" d="M358.5,286.269l14.979,1.331s52.592-44.27,97.861-35.616c0,0,27.96,7.656-38.945,52.925l13.647,5.991s82.549-42.273,72.563-69.9-63.41-8.488-63.41-8.488S408.762,245.327,358.5,286.269Z" transform="translate(-336.849 -226.056)" fill="#d61f26"/>
  <path id="Path_2" data-name="Path 2" d="M426,307.786l14.313-7.323s3.994,63.909,24.964,62.91,26.629-63.243,21.636-97.528l9.32-12.316s24.174,116.376-22.094,145C474.139,398.531,433.989,426.617,426,307.786Z" transform="translate(-314.477 -216.95)"/>
  <path id="Path_3" data-name="Path 3" d="M446.772,299.666l.443,14.2s-51.481-21.748-65.684-3.994c0,0-8.706,33.348,54.146,56.807,3.938,1.471-4.3-23.244-4.3-23.244l20.3,5.243s10.07,39.194,15.728,41.524-69.235-14.646-92.535-39.943-31.954-39.277-32.62-55.92,20.3-16.31,20.3-16.31,30.623,1.664,55.587,10.984S446.772,299.666,446.772,299.666Z" transform="translate(-342.238 -208.83)" fill="#fc0"/>
</svg>
